<?xml version="1.0" standalone="no"?>
<!DOCTYPE svg PUBLIC "-//W3C//DTD SVG 20010904//EN"
 "http://www.w3.org/TR/2001/REC-SVG-20010904/DTD/svg10.dtd">
<svg version="1.0" xmlns="http://www.w3.org/2000/svg"
 width="640.000000pt" height="1280.000000pt" viewBox="0 0 640.000000 1280.000000"
 preserveAspectRatio="xMidYMid meet">
<g transform="translate(0.000000,1280.000000) scale(0.100000,-0.100000)"
fill="#000000" stroke="none">
<path d="M3026 12790 c-654 -83 -1182 -573 -1305 -1214 -44 -224 -37 -438 19
-661 126 -501 503 -903 1000 -1065 106 -35 154 -45 310 -69 32 -5 -323 -9
-856 -10 -869 -1 -914 -2 -987 -21 -176 -45 -329 -134 -470 -275 -167 -167
-299 -403 -352 -630 -34 -147 -36 -271 -33 -1985 l3 -1695 480 0 480 0 3 1688
2 1687 160 0 160 0 2 -4267 3 -4268 702 -3 703 -2 2 2291 3 2290 145 0 145 0
3 -2290 2 -2291 703 2 702 3 3 4268 2 4267 160 0 160 0 2 -1687 3 -1688 480 0
480 0 0 1745 c0 1633 -1 1751 -18 1840 -77 406 -331 770 -651 930 -189 94
-130 90 -1165 91 -596 1 -884 5 -841 11 414 58 741 235 994 538 379 451 458
1092 202 1623 -76 157 -158 271 -295 408 -227 226 -468 357 -775 420 -114 23
-357 33 -470 19z"/>
</g>
</svg>
